
<?xml version="1.0" encoding="utf-8"?>
<!-- Generator: Adobe Illustrator 16.0.3, SVG Export Plug-In . SVG Version: 6.00 Build 0)  -->
<!DOCTYPE svg PUBLIC "-//W3C//DTD SVG 1.1//EN" "http://www.w3.org/Graphics/SVG/1.1/DTD/svg11.dtd">
<svg version="1.1" id="Ebene_1" xmlns="http://www.w3.org/2000/svg" xmlns:xlink="http://www.w3.org/1999/xlink" x="0px" y="0px"
	 width="500px" height="500px" viewBox="0 0 500 500" enable-background="new 0 0 500 500" xml:space="preserve">
<g>
	<path fill="#252828" d="M412.708,134.584c-7.106-4.509-17.175-3.702-30.186,2.407c-13.595,7.023-24.006,15.462-31.243,25.322
		c7.17-3.418,14.313-6.314,21.433-8.689c7.117-2.372,14.181-3.976,21.195-4.82l1.123,0.256c2.383,0.241,4.207,1.262,5.469,3.068
		c1.262,1.818,2.008,4.219,2.24,7.225c0.228,3.005-0.185,6.426-1.239,10.268c-1.059,3.839-2.89,7.748-5.494,11.72
		c-1.193,2.29-2.302,4.03-3.338,5.224c-1.037,1.197-2.162,2.433-3.4,3.703c-1.231,1.274-2.559,2.753-3.979,4.438
		c-1.417,1.692-3.245,4.108-5.482,7.25c-0.427,4.288,0.773,7.151,3.618,8.59c2.838,1.44,7.709,0.383,14.604-3.167
		c3.448-1.771,6.58-4.511,9.404-8.226c2.826-3.711,5.327-7.813,7.51-12.313c2.179-4.49,3.916-8.938,5.218-13.334
		c1.303-4.39,2.021-8.214,2.152-11.477C423.014,148.247,419.808,139.1,412.708,134.584z"/>
	<path fill="#252828" d="M7.23,7.264v485.632h485.632V7.264H7.23z M450.201,151.385c-0.409,6.118-2.244,13.347-5.475,21.681
		c-3.234,8.34-7.543,16.574-12.922,24.695c-5.381,8.125-11.6,15.541-18.666,22.245c-7.067,6.705-14.604,11.585-22.602,14.635
		c-8.073,2.859-15.17,2.583-21.278-0.817c-6.103-3.392-9.149-9.569-9.125-18.515c0.046-5.289,0.334-10.835,0.864-16.656
		c0.527-5.816,1.688-11.476,3.492-16.976c-4.146,2.953-8.459,6.203-12.95,9.752c-4.49,3.546-9.093,7.246-13.806,11.11
		c-0.538,11.199,1.331,22.403,5.604,33.606c4.274,11.204,8.872,22.508,13.798,33.918c4.925,11.41,9.232,23,12.922,34.768
		c3.684,11.773,4.774,23.784,3.269,36.044c-1.53,13.42-5.475,26.952-11.833,40.605c-6.368,13.662-14.425,26.47-24.176,38.439
		c-9.755,11.972-20.862,22.507-33.31,31.614c-12.455,9.097-25.531,15.809-39.236,20.123c-12.433,4.054-23.067,5.302-31.908,3.751
		c-8.841-1.559-16.084-4.922-21.727-10.101c-5.639-5.177-9.83-11.657-12.568-19.436c-2.739-7.771-4.157-15.996-4.254-24.669
		c-0.772-21.238,3.748-41.524,13.56-60.851c9.816-19.323,25.164-36.754,46.045-52.28c3.198-1.22,6.787-1.732,10.763-1.528
		c3.971,0.205,7.455,0.938,10.46,2.195c3,1.262,5.108,3.038,6.324,5.322c1.217,2.285,0.487,4.744-2.175,7.364
		c-12.732,8.068-23.282,18.563-31.638,31.488c-8.36,12.931-13.313,26.68-14.855,41.244c-1.082,7.977-1.052,14.956,0.081,20.935
		c1.137,5.987,3.3,10.896,6.477,14.717c3.18,3.831,7.366,6.245,12.559,7.241c5.192,0.998,11.502,0.423,18.933-1.726
		c4.757-1.35,10.021-4.51,15.808-9.469c5.782-4.953,11.063-11.092,15.831-18.413c4.769-7.316,8.724-15.412,11.869-24.293
		c3.142-8.871,4.355-17.867,3.621-26.985c-0.521-7.358-2.035-15.834-4.541-25.418c-2.514-9.579-5.326-19.504-8.439-29.775
		c-3.114-10.265-6.072-20.421-8.873-30.47c-2.803-10.041-4.519-19.185-5.138-27.425c-12.042,9.867-23.955,19.054-35.717,27.545
		c-11.77,8.501-23.177,15.089-34.225,19.759c-7.721,3.179-15.532,5.239-23.419,6.185c-1.905,0.231-3.763,0.356-5.581,0.39
		c-4.682,12.832-9.431,25.212-14.237,37.122c-6.833,16.931-13.292,31.827-19.386,44.687c-3.295,6.985-7.123,10.91-11.489,11.774
		c-4.37,0.865-8.352,0.038-11.949-2.484c-3.6-2.522-6.314-6.184-8.144-10.985c-1.835-4.799-1.797-9.506,0.106-14.133
		c4.549-10.899,8.811-22.095,12.796-33.582c3.98-11.487,7.752-23.067,11.321-34.74c-10.013,1.983-19.241,2.874-27.685,2.656
		c-8.449-0.215-15.286-2.078-20.515-5.578c-2.516-1.789-4.154-4.431-4.913-7.922c-0.761-3.49-0.832-6.84-0.223-10.053
		c0.605-3.209,1.88-5.872,3.826-7.994c1.942-2.109,4.295-2.548,7.059-1.312c2.44,1.591,5.643,2.774,9.606,3.551
		c3.961,0.782,8.247,1.208,12.861,1.28c4.612,0.071,9.398-0.151,14.356-0.667s9.79-1.211,14.495-2.096
		c6.716-22.03,13.055-43.7,19.023-64.997c5.967-21.293,12.167-41.534,18.597-60.716c2.294-6.6,5.911-11.537,10.854-14.798
		c4.938-3.261,9.84-4.842,14.686-4.745c4.85,0.098,8.926,1.923,12.23,5.472c3.297,3.552,4.259,8.916,2.873,16.088
		c-2.579,14.278-6.531,30.793-11.862,49.551c-5.33,18.765-11.392,38.152-18.194,58.156c13.663-6.813,26.581-15.297,38.755-25.44
		c12.167-10.14,23.008-20.921,32.515-32.338c9.51-11.412,17.298-22.976,23.372-34.693c6.068-11.708,9.767-22.738,11.086-33.098
		c5.675-41.576-10.62-58.159-48.881-49.748c-13.364,2.811-26.594,8.083-39.678,15.823c-13.089,7.747-25.732,17.092-37.933,28.049
		c-12.204,10.958-23.748,23.036-34.634,36.239c-10.893,13.208-20.946,26.784-30.176,40.729
		c-9.229,13.954-17.386,27.713-24.458,41.294c-7.081,13.59-12.779,26.134-17.097,37.631c-2.085,3.548-5.031,4.384-8.836,2.512
		c-3.807-1.861-7.5-4.928-11.067-9.182c-3.568-4.252-6.336-9.095-8.294-14.537c-1.963-5.439-2.077-10.091-0.343-13.962
		c3.374-9.767,8.787-21.107,16.231-34.037c7.445-12.92,16.436-26.431,26.98-40.539c10.543-14.1,22.423-28.314,35.635-42.636
		c13.208-14.32,27.36-27.676,42.45-40.083c15.087-12.398,30.802-23.321,47.135-32.763c16.338-9.436,33.043-16.389,50.135-20.846
		c6.704-1.641,13.932-2.963,21.683-3.976c7.75-1.006,15.391-1.113,22.912-0.319c7.523,0.796,14.691,2.47,21.508,5.025
		c6.821,2.554,12.747,6.54,17.79,11.944c5.04,5.412,8.829,12.328,11.357,20.756c2.529,8.433,3.234,18.699,2.13,30.807
		c-0.61,6.166-1.667,12.259-3.105,18.284c5.999-3.521,11.858-6.377,17.575-8.558c10.724-4.316,20.366-5.933,28.917-4.845
		c8.548,1.094,15.76,4.072,21.625,8.937c5.867,4.868,10.29,11.197,13.264,18.997C449.667,133.721,450.842,142.208,450.201,151.385z"
		/>
</g>
</svg>
