<svg class="mv-svg-title">
	<linearGradient id="gradation-1">
    <stop offset="0%"   stop-color="#1bb"/>
    <stop offset="100%" stop-color="#d2d"/>
  </linearGradient>
<path class="text-path" fill="#252828" d="M284.429,75.749c-2.013-5.28-5.007-9.565-8.979-12.86c-3.971-3.293-8.853-5.31-14.64-6.05
	c-5.788-0.737-12.314,0.358-19.575,3.28c-3.87,1.476-7.837,3.41-11.898,5.792c0.975-4.078,1.689-8.204,2.103-12.377
	c0.748-8.197,0.271-15.146-1.442-20.855c-1.71-5.706-4.275-10.388-7.687-14.052c-3.415-3.658-7.426-6.356-12.045-8.085
	c-4.614-1.73-9.467-2.863-14.559-3.402c-5.093-0.538-10.264-0.465-15.511,0.216c-5.247,0.685-10.141,1.58-14.679,2.691
	c-11.571,3.017-22.88,7.724-33.938,14.112c-11.057,6.392-21.697,13.786-31.91,22.179C89.454,54.738,79.874,63.78,70.933,73.474
	c-8.944,9.695-16.987,19.318-24.125,28.863c-7.138,9.55-13.224,18.697-18.264,27.443c-5.04,8.752-8.704,16.429-10.988,23.042
	c-1.173,2.619-1.096,5.768,0.232,9.449c1.325,3.688,3.199,6.965,5.615,9.842c2.416,2.881,4.916,4.957,7.493,6.217
	c2.576,1.268,4.57,0.701,5.981-1.701c2.923-7.783,6.78-16.273,11.574-25.475c4.788-9.193,10.31-18.509,16.557-27.955
	c6.249-9.44,13.054-18.631,20.428-27.572c7.369-8.938,15.184-17.114,23.446-24.532c8.259-7.417,16.817-13.745,25.68-18.988
	c8.856-5.24,17.813-8.809,26.859-10.712c25.901-5.693,36.934,5.532,33.09,33.678c-0.893,7.013-3.396,14.48-7.505,22.406
	c-4.111,7.931-9.384,15.759-15.821,23.485c-6.437,7.729-13.774,15.026-22.011,21.891c-8.242,6.867-16.986,12.611-26.236,17.223
	c4.604-13.541,8.709-26.666,12.316-39.369c3.608-12.699,6.284-23.879,8.03-33.544c0.938-4.856,0.287-8.487-1.944-10.892
	c-2.237-2.403-4.998-3.638-8.279-3.704c-3.282-0.067-6.6,1.004-9.942,3.212c-3.346,2.208-5.795,5.549-7.348,10.018
	c-4.354,12.985-8.549,26.687-12.59,41.102c-4.039,14.419-8.331,29.087-12.877,44.001c-3.185,0.6-6.457,1.07-9.813,1.418
	c-3.356,0.35-6.597,0.5-9.718,0.453c-3.124-0.051-6.025-0.338-8.707-0.867c-2.684-0.525-4.852-1.328-6.503-2.402
	c-1.871-0.838-3.463-0.543-4.779,0.887c-1.316,1.436-2.18,3.238-2.589,5.412c-0.413,2.174-0.365,4.441,0.151,6.805
	c0.513,2.363,1.622,4.152,3.325,5.363c3.54,2.369,8.168,3.629,13.889,3.775c5.715,0.148,11.963-0.455,18.742-1.799
	c-2.416,7.902-4.97,15.742-7.664,23.518c-2.697,7.777-5.583,15.355-8.662,22.734c-1.289,3.133-1.315,6.318-0.072,9.568
	c1.239,3.25,3.076,5.729,5.513,7.436c2.435,1.707,5.131,2.268,8.089,1.682c2.956-0.586,5.547-3.242,7.777-7.971
	c4.125-8.705,8.499-18.789,13.123-30.25c3.255-8.063,6.469-16.443,9.638-25.131c1.23-0.021,2.489-0.107,3.778-0.264
	c5.339-0.641,10.627-2.035,15.854-4.188c7.478-3.16,15.201-7.621,23.168-13.375c7.963-5.748,16.027-11.969,24.18-18.648
	c0.419,5.58,1.58,11.77,3.478,18.566c1.896,6.803,3.899,13.678,6.008,20.627c2.106,6.953,4.011,13.672,5.712,20.158
	c1.696,6.488,2.722,12.225,3.074,17.205c0.498,6.174-0.324,12.264-2.451,18.27c-2.129,6.012-4.807,11.49-8.035,16.445
	c-3.227,4.955-6.802,9.111-10.717,12.465c-3.916,3.355-7.48,5.496-10.701,6.41c-5.03,1.453-9.302,1.844-12.817,1.168
	c-3.515-0.676-6.349-2.311-8.501-4.902c-2.151-2.588-3.614-5.91-4.384-9.963c-0.769-4.047-0.788-8.771-0.057-14.172
	c1.045-9.859,4.397-19.168,10.058-27.922c5.657-8.748,12.798-15.854,21.417-21.316c1.802-1.773,2.296-3.438,1.473-4.984
	c-0.822-1.547-2.25-2.748-4.281-3.604c-2.035-0.852-4.393-1.346-7.081-1.486c-2.69-0.137-5.121,0.209-7.286,1.035
	c-14.135,10.512-24.525,22.313-31.171,35.393c-6.643,13.084-9.701,26.816-9.181,41.193c0.067,5.871,1.026,11.439,2.882,16.699
	c1.853,5.266,4.688,9.654,8.508,13.156c3.818,3.506,8.723,5.783,14.707,6.84c5.985,1.049,13.186,0.203,21.602-2.541
	c9.277-2.92,18.129-7.463,26.562-13.621c8.426-6.166,15.945-13.299,22.549-21.402c6.602-8.104,12.055-16.773,16.366-26.021
	c4.305-9.242,6.975-18.404,8.011-27.488c1.02-8.299,0.28-16.43-2.213-24.4c-2.497-7.967-5.414-15.813-8.748-23.537
	c-3.334-7.723-6.446-15.377-9.341-22.961c-2.892-7.584-4.157-15.167-3.793-22.75c3.19-2.616,6.306-5.121,9.346-7.521
	c3.041-2.403,5.959-4.603,8.768-6.602c-1.223,3.724-2.008,7.554-2.365,11.491c-0.358,3.941-0.553,7.696-0.585,11.276
	c-0.017,6.056,2.046,10.238,6.178,12.535c4.136,2.301,8.938,2.488,14.404,0.553c5.415-2.066,10.517-5.369,15.301-9.908
	c4.784-4.538,8.994-9.558,12.637-15.059c3.641-5.497,6.557-11.072,8.747-16.717c2.188-5.642,3.429-10.536,3.706-14.677
	C287.24,86.775,286.445,81.03,284.429,75.749z M267.928,100.193c-0.089,2.208-0.576,4.798-1.457,7.77
	c-0.883,2.976-2.059,5.987-3.533,9.026c-1.477,3.047-3.17,5.824-5.084,8.336c-1.912,2.515-4.032,4.37-6.366,5.569
	c-4.669,2.403-7.965,3.119-9.887,2.145c-1.925-0.975-2.739-2.914-2.449-5.816c1.515-2.126,2.753-3.762,3.712-4.907
	c0.961-1.14,1.858-2.142,2.693-3.004c0.838-0.861,1.6-1.696,2.302-2.507c0.701-0.809,1.451-1.987,2.26-3.537
	c1.763-2.688,3.002-5.334,3.718-7.934c0.715-2.6,0.994-4.917,0.84-6.951c-0.157-2.035-0.662-3.661-1.517-4.891
	c-0.855-1.223-2.089-1.914-3.702-2.077l-0.76-0.173c-4.749,0.571-9.531,1.656-14.349,3.262c-4.819,1.609-9.656,3.568-14.509,5.883
	c4.898-6.675,11.946-12.388,21.15-17.142c8.809-4.135,15.623-4.682,20.434-1.629C266.231,84.671,268.401,90.863,267.928,100.193z"/>
<g>
	<path class="text-path" fill="#252828" d="M350.164,100.993h68.212c34.805,0,53.762,16.626,53.762,47.857c0,31.076-18.957,47.701-53.762,47.701
		h-37.292v34.961h-30.92V100.993z M416.355,170.604c15.228,0,24.706-7.303,24.706-21.753c0-14.605-9.479-21.909-24.706-21.909
		h-35.271v43.662H416.355z"/>
	<path class="text-path" fill="#252828" d="M610.58,100.993v130.52h-31.076v-52.363h-64.794v52.363h-30.92v-130.52h30.92v52.363h64.794v-52.363H610.58
		z"/>
	<path class="text-path" fill="#252828" d="M623.786,100.993h30.92v130.52h-30.92V100.993z"/>
	<path class="text-path" fill="#252828" d="M668.067,100.993h30.92v104.571h75.204v25.948H668.067V100.993z"/>
	<path class="text-path" fill="#252828" d="M783.202,191.114h27.968c1.088,12.274,11.188,20.044,32.63,20.199c20.199,0,31.231-6.837,31.231-17.092
		c0-9.013-7.303-13.519-22.841-16.16l-16.159-2.797c-24.706-4.351-49.256-10.876-49.256-39.311
		c0-24.706,20.821-39.312,57.335-39.312c34.028,0,57.646,11.964,57.957,44.283h-27.813c-2.021-11.809-11.188-19.733-30.766-19.733
		c-17.714,0-27.036,6.061-27.036,16.16c0,7.924,6.37,12.896,19.733,15.383l14.14,2.485c24.86,4.506,55.471,8.701,55.471,39.933
		c0,25.949-21.287,40.71-61.997,40.71C804.022,235.863,783.045,221.724,783.202,191.114z"/>
	<path class="text-path" fill="#252828" d="M1037.404,126.941h-48.945v104.571h-31.076V126.941h-48.789v-25.948h128.811V126.941z"/>
	<path class="text-path" fill="#252828" d="M1123.173,209.604h-64.327l-8.08,21.908h-32.009l50.499-130.52h43.507l50.653,130.52h-32.163
		L1123.173,209.604z M1114.472,186.142l-20.511-55.781h-5.904l-20.51,55.781H1114.472z"/>
	<path class="text-path" fill="#252828" d="M1157.825,166.253c0-41.021,29.212-69.61,71.475-69.61c28.591,0,57.957,12.741,64.328,51.12h-29.678
		c-5.594-16.781-18.49-24.239-34.65-24.239c-23.151,0-40.864,17.558-40.864,42.729c0,25.017,17.713,42.729,40.864,42.729
		c16.16,0,29.057-7.458,34.65-24.395h29.678c-6.371,38.534-35.427,51.275-64.328,51.275
		C1187.037,235.863,1157.825,207.273,1157.825,166.253z"/>
	<path class="text-path" fill="#252828" d="M1402.858,231.513l-42.729-53.762h-2.176l-22.53,23.308v30.454h-30.765v-130.52h30.765v62.618h2.331
		l59.355-62.618h35.115l-54.383,57.957l57.336,72.563H1402.858z"/>
</g>
</svg>
