<?xml version="1.0" encoding="utf-8"?>
<!-- Generator: Adobe Illustrator 16.0.3, SVG Export Plug-In . SVG Version: 6.00 Build 0)  -->
<!DOCTYPE svg PUBLIC "-//W3C//DTD SVG 1.1//EN" "http://www.w3.org/Graphics/SVG/1.1/DTD/svg11.dtd">
<svg version="1.1" id="Ebene_1" xmlns="http://www.w3.org/2000/svg" xmlns:xlink="http://www.w3.org/1999/xlink" x="0px" y="0px"
	 width="344.982px" height="415.031px" viewBox="0 -2.552 344.982 415.031" enable-background="new 0 -2.552 344.982 415.031"
	 xml:space="preserve">
<path display="none" fill="#242828" d="M594.448,160.164c-1.938-5.083-4.82-9.207-8.643-12.379c-3.822-3.17-8.521-5.11-14.092-5.823
	c-5.571-0.709-11.854,0.344-18.842,3.157c-3.725,1.421-7.543,3.282-11.453,5.576c0.938-3.926,1.626-7.896,2.024-11.914
	c0.72-7.89,0.261-14.579-1.388-20.074c-1.647-5.492-4.116-9.999-7.4-13.526c-3.286-3.521-7.148-6.119-11.593-7.783
	c-4.441-1.665-9.112-2.756-14.015-3.274c-4.901-0.518-9.879-0.448-14.929,0.208c-5.051,0.66-9.761,1.521-14.129,2.591
	c-11.138,2.904-22.023,7.435-32.669,13.584c-10.643,6.152-20.883,13.269-30.714,21.348c-9.833,8.085-19.055,16.788-27.661,26.119
	c-8.609,9.332-16.351,18.595-23.221,27.783c-6.871,9.193-12.729,17.997-17.581,26.416c-4.85,8.424-8.378,15.814-10.576,22.178
	c-1.13,2.523-1.056,5.554,0.224,9.098c1.275,3.547,3.079,6.702,5.404,9.473c2.325,2.772,4.731,4.77,7.212,5.983
	c2.479,1.22,4.399,0.675,5.758-1.637c2.813-7.492,6.526-15.666,11.14-24.521c4.609-8.85,9.924-17.816,15.938-26.908
	c6.014-9.087,12.565-17.934,19.663-26.54c7.094-8.604,14.616-16.474,22.568-23.615c7.95-7.139,16.189-13.229,24.718-18.277
	c8.525-5.043,17.146-8.479,25.854-10.311c24.932-5.48,35.55,5.326,31.852,32.417c-0.859,6.751-3.269,13.939-7.224,21.568
	c-3.958,7.635-9.033,15.17-15.229,22.606c-6.195,7.44-13.259,14.465-21.188,21.072c-7.933,6.61-16.35,12.138-25.254,16.578
	c4.433-13.036,8.383-25.668,11.856-37.896c3.474-12.223,6.049-22.984,7.729-32.288c0.904-4.674,0.277-8.169-1.872-10.483
	c-2.153-2.313-4.809-3.502-7.969-3.566c-3.158-0.063-6.352,0.967-9.57,3.092c-3.22,2.125-5.577,5.342-7.072,9.643
	c-4.189,12.499-8.229,25.688-12.118,39.563c-3.889,13.878-8.02,27.998-12.396,42.354c-3.066,0.576-6.214,1.029-9.445,1.365
	c-3.23,0.336-6.35,0.481-9.354,0.434c-3.007-0.047-5.8-0.324-8.381-0.834c-2.583-0.506-4.67-1.277-6.26-2.313
	c-1.801-0.806-3.334-0.521-4.6,0.854c-1.267,1.383-2.098,3.119-2.493,5.209c-0.396,2.094-0.35,4.277,0.146,6.551
	c0.494,2.275,1.561,3.996,3.201,5.162c3.407,2.281,7.862,3.494,13.368,3.635c5.502,0.142,11.516-0.438,18.04-1.731
	c-2.325,7.606-4.783,15.152-7.377,22.637c-2.597,7.486-5.374,14.781-8.338,21.883c-1.24,3.015-1.265,6.082-0.069,9.209
	c1.192,3.129,2.961,5.515,5.307,7.158c2.343,1.644,4.938,2.183,7.786,1.619c2.844-0.563,5.339-3.121,7.486-7.672
	c3.971-8.379,8.18-18.086,12.632-29.119c3.132-7.76,6.226-15.828,9.277-24.189c1.185-0.022,2.396-0.104,3.637-0.254
	c5.14-0.616,10.229-1.959,15.261-4.03c7.199-3.043,14.632-7.336,22.301-12.875c7.665-5.533,15.427-11.52,23.274-17.949
	c0.403,5.37,1.521,11.328,3.348,17.871c1.825,6.547,3.753,13.166,5.782,19.854c2.028,6.693,3.861,13.16,5.499,19.402
	c1.633,6.246,2.62,11.768,2.959,16.563c0.478,5.941-0.313,11.804-2.36,17.584c-2.049,5.787-4.627,11.062-7.734,15.83
	c-3.106,4.771-6.548,8.771-10.315,11.998c-3.771,3.232-7.202,5.291-10.301,6.17c-4.842,1.4-8.953,1.775-12.337,1.125
	c-3.384-0.649-6.111-2.223-8.184-4.719c-2.07-2.49-3.479-5.688-4.22-9.59c-0.739-3.895-0.758-8.443-0.053-13.641
	c1.005-9.49,4.232-18.449,9.68-26.875c5.445-8.422,12.319-15.261,20.616-20.519c1.734-1.707,2.21-3.309,1.417-4.799
	c-0.792-1.488-2.166-2.645-4.121-3.467c-1.958-0.82-4.229-1.297-6.816-1.431c-2.591-0.133-4.929,0.201-7.013,0.996
	c-13.607,10.117-23.608,21.476-30.004,34.066c-6.394,12.594-9.339,25.813-8.836,39.652c0.063,5.651,0.987,11.012,2.772,16.075
	c1.784,5.068,4.515,9.291,8.19,12.664c3.676,3.375,8.396,5.566,14.157,6.582c5.761,1.011,12.69,0.197,20.792-2.444
	c8.931-2.812,17.451-7.185,25.567-13.113c8.111-5.934,15.349-12.799,21.705-20.6c6.354-7.8,11.604-16.146,15.753-25.048
	c4.144-8.896,6.714-17.715,7.711-26.459c0.982-7.989,0.271-15.815-2.13-23.487c-2.404-7.668-5.211-15.22-8.42-22.656
	c-3.21-7.434-6.206-14.8-8.991-22.101c-2.784-7.3-4.002-14.601-3.651-21.899c3.071-2.517,6.07-4.928,8.996-7.239
	c2.927-2.312,5.736-4.43,8.438-6.354c-1.175,3.584-1.931,7.271-2.275,11.061c-0.346,3.793-0.533,7.407-0.563,10.854
	c-0.016,5.829,1.969,9.854,5.946,12.064c3.98,2.216,8.604,2.396,13.865,0.532c5.212-1.987,10.122-5.167,14.728-9.536
	c4.604-4.368,8.657-9.2,12.163-14.495c3.505-5.292,6.312-10.657,8.42-16.092c2.105-5.43,3.3-10.141,3.567-14.128
	C597.154,170.778,596.388,165.248,594.448,160.164z M578.564,183.693c-0.085,2.126-0.554,4.618-1.402,7.479
	c-0.849,2.864-1.981,5.762-3.401,8.688c-1.422,2.933-3.052,5.606-4.893,8.024c-1.84,2.42-3.881,4.206-6.128,5.36
	c-4.493,2.313-7.667,3.002-9.517,2.063c-1.853-0.937-2.636-2.803-2.357-5.597c1.458-2.047,2.649-3.621,3.572-4.724
	c0.926-1.098,1.79-2.061,2.593-2.892c0.806-0.828,1.54-1.632,2.216-2.413c0.674-0.778,1.397-1.912,2.174-3.404
	c1.698-2.588,2.891-5.135,3.58-7.637c0.688-2.503,0.956-4.732,0.808-6.69c-0.151-1.959-0.638-3.524-1.46-4.708
	c-0.822-1.177-2.011-1.842-3.563-1.999l-0.732-0.167c-4.571,0.55-9.174,1.595-13.811,3.141c-4.639,1.547-9.294,3.434-13.966,5.662
	c4.716-6.425,11.5-11.924,20.358-16.5c8.479-3.981,15.039-4.507,19.67-1.569C576.931,168.753,579.02,174.713,578.564,183.693z"/>
<g>
	<polygon fill="#1E1E1E" points="210.236,379.135 237.193,379.135 223.734,352.191 	"/>
	<path fill="#1E1E1E" d="M22.353,373.988h10.469c3.227,0,5.978-1.137,8.255-3.405c2.276-2.271,3.415-5.015,3.415-8.231
		c0-3.216-1.139-5.96-3.415-8.229c-2.277-2.271-5.028-3.405-8.255-3.405h-11.67v24.49C21.152,374.393,21.55,373.988,22.353,373.988z
		"/>
</g>
<g>
	<path fill="#1E1E1E" d="M0-2.52v414.999h346v-415L0-2.52L0-2.52z M42.776,372.304c-2.746,2.746-6.064,4.119-9.954,4.119H22.353
		c-0.803,0-1.201-0.406-1.201-1.219v20.612c0,0.801-0.401,1.2-1.202,1.2s-1.201-0.399-1.201-1.201v-46.337
		c0-0.802,0.4-1.202,1.201-1.202h12.872c3.89,0,7.208,1.373,9.954,4.119c2.746,2.745,4.119,6.063,4.119,9.953
		C46.895,366.241,45.522,369.558,42.776,372.304z M87.053,395.817c0,0.802-0.399,1.201-1.2,1.201c-0.803,0-1.201-0.399-1.201-1.201
		v-21.968H56.162v21.968c0,0.802-0.401,1.201-1.202,1.201s-1.201-0.399-1.201-1.201V349.48c0-0.802,0.4-1.202,1.201-1.202
		s1.202,0.399,1.202,1.199v21.936h28.489v-21.936c0-0.8,0.398-1.199,1.201-1.199c0.801,0,1.2,0.4,1.2,1.202V395.817z
		 M99.754,395.817c0,0.802-0.4,1.201-1.202,1.201c-0.801,0-1.2-0.399-1.2-1.201V349.48c0-0.802,0.399-1.202,1.2-1.202
		c0.802,0,1.202,0.4,1.202,1.202V395.817z M136.995,397.018h-25.744c-0.801,0-1.201-0.399-1.201-1.201V349.48
		c0-0.802,0.4-1.202,1.201-1.202s1.202,0.399,1.202,1.2v45.104h24.542c0.801,0,1.201,0.407,1.201,1.219
		S137.796,397.018,136.995,397.018z M163.956,392.903c-2.758,2.743-6.069,4.115-9.937,4.115c-2.519,0-4.869-0.635-7.055-1.904
		c-2.186-1.271-3.906-2.98-5.166-5.132c-0.113-0.229-0.172-0.445-0.172-0.651c0-0.778,0.424-1.167,1.271-1.167
		c0.364,0,0.696,0.205,0.994,0.613c0.229,0.364,0.606,0.911,1.134,1.64c2.312,2.776,5.309,4.165,8.993,4.165
		c3.202,0,5.948-1.144,8.237-3.431c2.287-2.285,3.433-5.029,3.433-8.23s-1.146-5.944-3.433-8.23
		c-2.289-2.287-5.028-3.432-8.221-3.432s-5.91-1.126-8.152-3.378c-2.243-2.252-3.364-4.956-3.364-8.111s1.121-5.858,3.364-8.111
		c2.242-2.252,4.954-3.379,8.136-3.379c4.369,0,7.677,1.899,9.92,5.698c0.137,0.205,0.205,0.424,0.205,0.651
		c0,0.778-0.424,1.167-1.271,1.167c-0.298,0-0.823-0.432-1.579-1.296c-0.938-1.113-1.808-1.932-2.607-2.455
		c-1.352-0.886-2.906-1.329-4.668-1.329c-2.519,0-4.663,0.893-6.437,2.676c-1.774,1.784-2.66,3.923-2.66,6.413
		c0,2.493,0.886,4.632,2.66,6.414c1.772,1.784,3.918,2.677,6.437,2.677c3.866,0,7.179,1.371,9.937,4.114
		c2.758,2.744,4.137,6.06,4.137,9.947C168.092,386.842,166.714,390.159,163.956,392.903z M189.374,395.818
		c0,0.801-0.401,1.2-1.202,1.2s-1.201-0.399-1.201-1.2v-45.104h-14.243c-0.803,0-1.202-0.406-1.202-1.219s0.399-1.219,1.202-1.219
		h30.892c0.801,0,1.201,0.406,1.201,1.219s-0.4,1.219-1.201,1.219h-14.244L189.374,395.818L189.374,395.818z M246.825,397.018
		c-0.459,0-0.804-0.216-1.033-0.646l-7.385-14.791l-0.104-0.009h-29.277l-7.389,14.799c-0.229,0.432-0.574,0.646-1.034,0.646
		c-0.852,0-1.275-0.389-1.275-1.167c0-0.273,3.569-7.597,10.709-21.968c7.116-14.278,11.28-22.527,12.493-24.748
		c0.319-0.571,0.71-0.857,1.168-0.857c0.479,0,0.881,0.287,1.202,0.857c1.213,2.221,5.377,10.471,12.493,24.749
		c7.139,14.37,10.707,21.692,10.707,21.968C248.1,396.629,247.675,397.018,246.825,397.018z M260.373,388.156
		c4.291,4.283,9.468,6.425,15.532,6.425c5.354,0,10.524-2.128,15.515-6.387c0.297-0.25,0.583-0.376,0.857-0.376
		c0.824,0,1.235,0.412,1.235,1.236c0,0.297-0.126,0.572-0.378,0.823c-4.554,4.76-10.297,7.14-17.229,7.14
		c-6.729,0-12.472-2.38-17.231-7.14c-4.76-4.759-7.14-10.503-7.14-17.229c0-6.728,2.38-12.473,7.14-17.231
		c4.761-4.759,10.504-7.14,17.231-7.14c6.934,0,12.677,2.381,17.229,7.14c0.252,0.252,0.378,0.527,0.378,0.824
		c0,0.823-0.411,1.234-1.235,1.234c-0.274,0-0.562-0.125-0.857-0.375c-4.989-4.258-10.16-6.387-15.515-6.387
		c-6.064,0-11.241,2.143-15.532,6.426c-4.29,4.284-6.436,9.453-6.436,15.509C253.938,378.703,256.083,383.872,260.373,388.156z
		 M297.243,100.737c-0.269,3.986-1.462,8.697-3.567,14.128c-2.108,5.435-4.916,10.8-8.42,16.092
		c-3.506,5.295-7.56,10.127-12.163,14.495c-4.604,4.369-9.516,7.549-14.728,9.536c-5.264,1.861-9.885,1.684-13.865-0.532
		c-3.979-2.211-5.962-6.236-5.946-12.065c0.029-3.444,0.218-7.06,0.563-10.853c0.346-3.79,1.102-7.478,2.275-11.062
		c-2.702,1.927-5.513,4.044-8.438,6.355s-5.925,4.723-8.996,7.239c-0.351,7.3,0.867,14.601,3.651,21.898
		c2.785,7.301,5.781,14.667,8.991,22.102c3.209,7.438,6.016,14.987,8.42,22.655c2.401,7.673,3.112,15.498,2.13,23.488
		c-0.997,8.744-3.567,17.563-7.711,26.459c-4.147,8.9-9.399,17.248-15.753,25.047c-6.356,7.802-13.594,14.666-21.705,20.601
		c-8.116,5.93-16.639,10.303-25.567,13.112c-8.102,2.644-15.031,3.455-20.792,2.445c-5.762-1.016-10.481-3.207-14.157-6.582
		c-3.677-3.373-6.406-7.596-8.19-12.664c-1.785-5.063-2.709-10.424-2.772-16.076c-0.503-13.84,2.442-27.059,8.836-39.651
		c6.396-12.592,16.396-23.949,30.004-34.066c2.084-0.795,4.422-1.129,7.013-0.996c2.588,0.133,4.858,0.609,6.816,1.431
		c1.955,0.821,3.329,1.979,4.121,3.467c0.793,1.49,0.317,3.092-1.417,4.799c-8.297,5.258-15.171,12.096-20.616,20.518
		c-5.446,8.427-8.675,17.386-9.68,26.875c-0.705,5.197-0.688,9.746,0.053,13.642c0.74,3.899,2.148,7.1,4.22,9.59
		c2.071,2.496,4.8,4.068,8.184,4.719c3.384,0.651,7.495,0.275,12.337-1.125c3.099-0.879,6.529-2.938,10.301-6.17
		c3.769-3.229,7.209-7.229,10.315-11.998c3.107-4.77,5.687-10.043,7.734-15.83c2.049-5.781,2.838-11.643,2.36-17.584
		c-0.339-4.797-1.326-10.317-2.959-16.563c-1.638-6.242-3.471-12.709-5.499-19.402c-2.029-6.689-3.957-13.309-5.781-19.855
		c-1.827-6.543-2.944-12.501-3.349-17.87c-7.849,6.431-15.608,12.416-23.274,17.948c-7.669,5.539-15.102,9.832-22.301,12.875
		c-5.033,2.072-10.121,3.414-15.261,4.031c-1.241,0.148-2.452,0.23-3.637,0.254c-3.054,8.361-6.146,16.431-9.277,24.189
		c-4.452,11.033-8.661,20.739-12.632,29.119c-2.147,4.551-4.645,7.108-7.486,7.672c-2.849,0.563-5.443,0.022-7.786-1.619
		c-2.346-1.646-4.113-4.029-5.307-7.158c-1.194-3.127-1.171-6.195,0.069-9.209c2.964-7.102,5.74-14.396,8.338-21.883
		c2.594-7.484,5.052-15.029,7.377-22.637c-6.524,1.295-12.538,1.873-18.04,1.731c-5.506-0.141-9.961-1.354-13.368-3.635
		c-1.642-1.166-2.707-2.887-3.201-5.162c-0.496-2.273-0.544-4.457-0.146-6.551c0.396-2.09,1.228-3.826,2.493-5.209
		c1.266-1.377,2.799-1.66,4.6-0.855c1.59,1.037,3.677,1.81,6.26,2.314c2.581,0.51,5.374,0.787,8.381,0.834
		c3.004,0.049,6.123-0.099,9.354-0.435c3.23-0.336,6.379-0.789,9.445-1.364c4.377-14.356,8.508-28.478,12.396-42.354
		c3.89-13.875,7.929-27.063,12.118-39.563c1.495-4.302,3.853-7.518,7.072-9.643c3.219-2.125,6.411-3.154,9.57-3.092
		c3.16,0.064,5.814,1.253,7.969,3.566c2.149,2.314,2.776,5.811,1.871,10.483c-1.679,9.303-4.254,20.065-7.728,32.288
		c-3.475,12.228-7.425,24.858-11.857,37.896c8.905-4.44,17.322-9.969,25.255-16.578c7.929-6.607,14.991-13.632,21.188-21.072
		c6.196-7.438,11.271-14.973,15.229-22.607c3.955-7.629,6.364-14.816,7.225-21.567c3.698-27.091-6.92-37.897-31.853-32.417
		c-8.708,1.831-17.328,5.268-25.854,10.311c-8.527,5.047-16.769,11.14-24.718,18.277c-7.952,7.142-15.476,15.013-22.568,23.615
		c-7.098,8.606-13.65,17.453-19.663,26.54c-6.015,9.092-11.328,18.06-15.938,26.907c-4.612,8.854-8.325,17.028-11.14,24.521
		c-1.357,2.311-3.277,2.854-5.758,1.637c-2.479-1.215-4.887-3.211-7.212-5.983c-2.325-2.771-4.129-5.927-5.404-9.473
		c-1.278-3.544-1.354-6.574-0.224-9.098c2.198-6.362,5.727-13.754,10.576-22.178c4.852-8.419,10.71-17.224,17.581-26.416
		c6.87-9.188,14.609-18.451,23.221-27.783c8.606-9.331,17.828-18.034,27.661-26.119c9.831-8.079,20.071-15.195,30.714-21.348
		c10.646-6.149,21.531-10.681,32.669-13.584c4.368-1.069,9.078-1.932,14.129-2.592c5.049-0.655,10.026-0.725,14.928-0.208
		c4.902,0.521,9.573,1.61,14.016,3.275c4.442,1.664,8.307,4.261,11.593,7.783c3.284,3.526,5.753,8.034,7.4,13.525
		c1.647,5.495,2.106,12.187,1.388,20.075c-0.399,4.019-1.087,7.988-2.025,11.914c3.911-2.294,7.729-4.156,11.454-5.577
		c6.988-2.813,13.271-3.865,18.841-3.156c5.57,0.713,10.271,2.653,14.093,5.822c3.82,3.172,6.704,7.296,8.643,12.379
		C296.887,89.227,297.654,94.757,297.243,100.737z M328.009,394.958c0.251,0.252,0.377,0.538,0.377,0.857
		c0,0.823-0.411,1.235-1.234,1.235c-0.298,0-0.572-0.125-0.824-0.377l-23.169-23.17c-0.252-0.251-0.377-0.537-0.377-0.856v23.2
		c0,0.803-0.401,1.203-1.202,1.203s-1.201-0.4-1.201-1.203v-46.402c0-0.803,0.4-1.203,1.201-1.203s1.202,0.4,1.202,1.203v23.202
		c0-0.32,0.125-0.606,0.377-0.858l23.169-23.169c0.252-0.252,0.526-0.378,0.824-0.378c0.823,0,1.234,0.412,1.234,1.235
		c0,0.32-0.126,0.606-0.377,0.857l-22.312,22.313L328.009,394.958z"/>
	<path fill="#1E1E1E" d="M272.802,89.791c-4.631-2.938-11.188-2.412-19.67,1.569c-8.857,4.575-15.643,10.074-20.357,16.5
		c4.672-2.229,9.327-4.115,13.966-5.662c4.636-1.546,9.238-2.591,13.81-3.142l0.733,0.167c1.553,0.158,2.741,0.823,3.563,1.999
		c0.822,1.185,1.31,2.749,1.461,4.708c0.147,1.958-0.12,4.188-0.809,6.691c-0.688,2.502-1.881,5.049-3.58,7.637
		c-0.774,1.492-1.5,2.626-2.174,3.404c-0.675,0.781-1.41,1.585-2.215,2.413c-0.803,0.831-1.667,1.794-2.593,2.892
		c-0.924,1.103-2.114,2.676-3.572,4.724c-0.278,2.794,0.506,4.659,2.356,5.597s5.023,0.25,9.518-2.063
		c2.247-1.153,4.288-2.939,6.128-5.359c1.84-2.418,3.47-5.093,4.892-8.024c1.42-2.928,2.555-5.825,3.402-8.688
		c0.849-2.86,1.317-5.354,1.402-7.479C279.52,98.693,277.43,92.733,272.802,89.791z"/>
</g>
</svg>
